<?xml version="1.0" encoding="utf-8"?>
<?xml-stylesheet type="text/xsl" href="rss1.xsl"?>
<rss version="2.0" xmlns:atom="http://www.w3.org/2005/Atom" xmlns:content="http://purl.org/rss/1.0/modules/content/" xmlns:dc="http://purl.org/dc/elements/1.1/" xmlns:media="http://search.yahoo.com/mrss/">
<channel>
 <title>Getty</title>
 <link>http://www.gettyimg.com/</link>
 <atom:link href="http://www.gettyimg.com/" rel="self" type="application/rss+xml" />

 
                <item>
                <title><![CDATA[【Apple Music】WEB-RiP - Cardi B - Like What (Freestyle) [Apple HD Music Video]]]></title>
                <link><![CDATA[https://sharemania.us/threads/cardi-b-like-what-freestyle-apple-hd-music-video.242339/]]></link>
                <description><![CDATA[<article>
<blockquote class="messageText SelectQuoteContainer ugc baseHtml">
<span style="font-size: 22px"><b>Cardi B - Like What (Freestyle) [Apple HD Music Video]</b></span><br>
<br>
<img src="https://imgur.com/zVjMJ7L.jpg" class="bbCodeImage LbImage" alt="[​IMG]" data-url="https://imgur.com/zVjMJ7L.jpg" style=""><br>
<br>
<div class="bbCodeBlock bbCodeCode">
<div class="type">Code:</div>
<pre>General
Format                         : MPEG-4
Codec ID                       : M4V  (isom/iso4/M4V /mp42)
File size                      : 129 MiB
Duration                       : 2 min 42 s
Overall bit rate mode          : Variable
Overall bit rate               : 6 664 kb/s
Movie name                     : Like What (Freestyle)
Performer                      : Cardi B
Genre                          : Hip-Hop/Rap
ContentType                    : Music Video
Recorded date                  : UTC 2024-03-01 08:00:00
Encoded date                   : UTC 2024-04-15 02:37:30
Tagged date                    : UTC 2024-04-15 02:37:30
Copyright                      : ℗ © 2024 Atlantic Recording Corporation
Cover                          : Yes
Rating                         : Explicit
GenreID                        : 1618
AppleStoreCountry              : United Kingdom
AlbumTitleID                   : 956078923
AppleStoreCatalogID            : 1733941653

Video
ID                             : 2
Format                         : AVC
Format/Info                    : Advanced Video Codec
Format profile                 : High@L4
Format settings                : CABAC / 4 Ref Frames
Format settings, CABAC         : Yes
Format settings, Reference fra : 4 frames
Codec ID                       : avc1
Codec ID/Info                  : Advanced Video Coding
Duration                       : 2 min 42 s
Bit rate                       : 6 391 kb/s
Maximum bit rate               : 11.3 Mb/s
Width                          : 1 920 pixels
Height                         : 1 080 pixels
Display aspect ratio           : 16:9
Frame rate mode                : Constant
Frame rate                     : 23.976 (24000/1001) FPS
Color space                    : YUV
Chroma subsampling             : 4:2:0
Bit depth                      : 8 bits
Scan type                      : Progressive
Bits/(Pixel*Frame)             : 0.129
Stream size                    : 123 MiB (96%)
Title                          : Core Media Video
Encoded date                   : UTC 2024-03-02 03:04:51
Tagged date                    : UTC 2024-04-15 02:37:30
Color range                    : Limited
Color primaries                : BT.709
Transfer characteristics       : BT.709
Matrix coefficients            : BT.709
Codec configuration box        : avcC

Audio
ID                             : 1
Format                         : AAC LC
Format/Info                    : Advanced Audio Codec Low Complexity
Codec ID                       : mp4a-40-2
Duration                       : 2 min 42 s
Duration_LastFrame             : -10 ms
Bit rate mode                  : Variable
Bit rate                       : 265 kb/s
Maximum bit rate               : 347 kb/s
Channel(s)                     : 2 channels
Channel layout                 : L R
Sampling rate                  : 48.0 kHz
Frame rate                     : 46.875 FPS (1024 SPF)
Compression mode               : Lossy
Stream size                    : 5.04 MiB (4%)
Title                          : Core Media Audio
Encoded date                   : UTC 2024-03-02 02:59:24
Tagged date                    : UTC 2024-04-15 02:37:30
</pre>
</div>
<div class="bbCodeBlock bbCodeVfcHH HiddenContent">
<div class="attribution type">Hidden Content:</div>
<blockquote>You must reply before you can see the hidden data contained here.</blockquote>
</div>
<div class="messageTextEndMarker">&nbsp;</div>
</blockquote>
</article>]]></description>
                <author><![CDATA[abby0511]]></author>
                </item>

                </channel></rss>